<?xml version="1.0" encoding="iso-8859-1"?>
<!-- Uploaded to: SVG Repo, www.svgrepo.com, Generator: SVG Repo Mixer Tools -->
<svg height="800px" width="800px" version="1.1" id="Layer_1" xmlns="http://www.w3.org/2000/svg" xmlns:xlink="http://www.w3.org/1999/xlink" 
	 viewBox="0 0 512 512" xml:space="preserve">
<path style="fill:#003DA8;" d="M224.651,227.08l31.35,192.58c95.731,0,173.336-38.619,173.336-67.971V227.08H224.651z"/>
<g>
	<path style="fill:#2F91ED;" d="M82.664,227.08V351.69c0,29.352,77.605,67.971,173.336,67.971V227.08H82.664z"/>
	<polygon style="fill:#2F91ED;" points="256.001,19.665 235.101,176.452 256.001,333.241 512,176.452 	"/>
</g>
<polygon style="fill:#63C1FF;" points="0,176.452 256.001,333.241 256.001,19.665 "/>
<polygon style="fill:#424242;" points="143.675,263.628 271.146,185.729 241.123,167.341 112.325,246.066 112.325,409.438 
	65.74,456.024 87.907,478.191 112.325,453.773 112.325,492.335 143.675,492.335 143.675,453.773 168.094,478.191 190.261,456.024 
	143.675,409.438 "/>
</svg>